<svg width="43" height="43" viewBox="0 0 43 43" fill="none" xmlns="http://www.w3.org/2000/svg">
<path fill-rule="evenodd" clip-rule="evenodd" d="M10.75 21.5002C10.75 21.1438 10.8916 20.8021 11.1436 20.5501C11.3956 20.2981 11.7374 20.1565 12.0938 20.1565H27.6624L21.8924 14.3891C21.6401 14.1368 21.4983 13.7946 21.4983 13.4377C21.4983 13.0809 21.6401 12.7387 21.8924 12.4864C22.1447 12.234 22.4869 12.0923 22.8438 12.0923C23.2006 12.0923 23.5428 12.234 23.7951 12.4864L31.8576 20.5489C31.9828 20.6737 32.082 20.822 32.1498 20.9852C32.2175 21.1485 32.2524 21.3235 32.2524 21.5002C32.2524 21.677 32.2175 21.852 32.1498 22.0152C32.082 22.1785 31.9828 22.3268 31.8576 22.4516L23.7951 30.5141C23.5428 30.7664 23.2006 30.9082 22.8438 30.9082C22.4869 30.9082 22.1447 30.7664 21.8924 30.5141C21.6401 30.2618 21.4983 29.9196 21.4983 29.5627C21.4983 29.2059 21.6401 28.8637 21.8924 28.6114L27.6624 22.844H12.0938C11.7374 22.844 11.3956 22.7024 11.1436 22.4504C10.8916 22.1984 10.75 21.8566 10.75 21.5002Z" fill="white"/>
</svg>
