<svg width="17" height="18" viewBox="0 0 17 18" fill="none" xmlns="http://www.w3.org/2000/svg">
<path d="M8.5 1.61035C4.39277 1.61035 1.0625 4.94063 1.0625 9.04785C1.0625 13.1551 4.39277 16.4854 8.5 16.4854C12.6072 16.4854 15.9375 13.1551 15.9375 9.04785C15.9375 4.94063 12.6072 1.61035 8.5 1.61035ZM11.7124 6.61904L8.21611 11.4667C8.16725 11.5349 8.10283 11.5905 8.02819 11.6288C7.95356 11.6672 7.87087 11.6872 7.78696 11.6872C7.70306 11.6872 7.62036 11.6672 7.54573 11.6288C7.4711 11.5905 7.40668 11.5349 7.35781 11.4667L5.2876 8.59795C5.22451 8.50996 5.2876 8.38711 5.39551 8.38711H6.17412C6.34346 8.38711 6.50449 8.46846 6.6041 8.60791L7.78613 10.2481L10.3959 6.629C10.4955 6.49121 10.6549 6.4082 10.8259 6.4082H11.6045C11.7124 6.4082 11.7755 6.53105 11.7124 6.61904Z" fill="#28AFB0"/>
</svg>
