<svg width="39" height="38" viewBox="0 0 39 38" fill="none" xmlns="http://www.w3.org/2000/svg">
<rect x="0.909088" width="37.6364" height="37.6364" rx="5" fill="#19647E"/>
<path d="M19.726 13.0393C18.1931 13.0393 16.7229 13.6483 15.6389 14.7322C14.555 15.8162 13.946 17.2864 13.946 18.8193C13.946 20.3523 14.555 21.8224 15.6389 22.9064C16.7229 23.9903 18.1931 24.5993 19.726 24.5993C21.259 24.5993 22.7291 23.9903 23.8131 22.9064C24.8971 21.8224 25.506 20.3523 25.506 18.8193C25.506 17.2864 24.8971 15.8162 23.8131 14.7322C22.7291 13.6483 21.259 13.0393 19.726 13.0393V13.0393ZM19.726 22.5731C18.7301 22.5731 17.775 22.1774 17.0708 21.4732C16.3666 20.769 15.971 19.8139 15.971 18.8181C15.971 17.8222 16.3666 16.8671 17.0708 16.1629C17.775 15.4587 18.7301 15.0631 19.726 15.0631C20.7219 15.0631 21.677 15.4587 22.3812 16.1629C23.0854 16.8671 23.481 17.8222 23.481 18.8181C23.481 19.8139 23.0854 20.769 22.3812 21.4732C21.677 22.1774 20.7219 22.5731 19.726 22.5731V22.5731Z" fill="white"/>
<path d="M25.7348 14.1742C26.479 14.1742 27.0823 13.571 27.0823 12.8267C27.0823 12.0825 26.479 11.4792 25.7348 11.4792C24.9906 11.4792 24.3873 12.0825 24.3873 12.8267C24.3873 13.571 24.9906 14.1742 25.7348 14.1742Z" fill="white"/>
<path d="M30.3935 11.457C30.1041 10.7097 29.6619 10.0311 29.0952 9.46454C28.5284 8.89801 27.8497 8.45605 27.1023 8.16696C26.2277 7.83866 25.3037 7.66114 24.3698 7.64196C23.166 7.58946 22.7848 7.57446 19.7323 7.57446C16.6798 7.57446 16.2885 7.57446 15.0948 7.64196C14.1615 7.66016 13.2382 7.83771 12.3648 8.16696C11.6172 8.45571 10.9382 8.89755 10.3714 9.46412C9.80465 10.0307 9.36255 10.7095 9.07352 11.457C8.74515 12.3315 8.56803 13.2555 8.54977 14.1895C8.49602 15.392 8.47977 15.7732 8.47977 18.827C8.47977 21.8795 8.47977 22.2682 8.54977 23.4645C8.56852 24.3995 8.74477 25.322 9.07352 26.1982C9.36336 26.9454 9.80589 27.6239 10.3728 28.1904C10.9397 28.7569 11.6186 29.1989 12.366 29.4882C13.2378 29.8297 14.1615 30.0199 15.0973 30.0507C16.301 30.1032 16.6823 30.1195 19.7348 30.1195C22.7873 30.1195 23.1785 30.1195 24.3723 30.0507C25.3061 30.0317 26.2301 29.8546 27.1048 29.527C27.852 29.2372 28.5305 28.7949 29.0972 28.2282C29.6639 27.6615 30.1063 26.9829 30.396 26.2357C30.7248 25.3607 30.901 24.4382 30.9198 23.5032C30.9735 22.3007 30.9898 21.9195 30.9898 18.8657C30.9898 15.812 30.9898 15.4245 30.9198 14.2282C30.9052 13.2811 30.7272 12.3435 30.3935 11.457V11.457ZM28.871 23.372C28.863 24.0923 28.7315 24.806 28.4823 25.482C28.2945 25.968 28.0072 26.4095 27.6386 26.7778C27.27 27.1462 26.8285 27.4333 26.3423 27.6207C25.6738 27.8688 24.9677 28.0003 24.2548 28.0095C23.0673 28.0645 22.7323 28.0782 19.6873 28.0782C16.6398 28.0782 16.3285 28.0782 15.1185 28.0095C14.4059 28.0007 13.7002 27.8692 13.0323 27.6207C12.5444 27.4344 12.101 27.1478 11.7309 26.7794C11.3607 26.411 11.0721 25.969 10.8835 25.482C10.6378 24.8133 10.5064 24.108 10.4948 23.3957C10.441 22.2082 10.4285 21.8732 10.4285 18.8282C10.4285 15.782 10.4285 15.4707 10.4948 14.2595C10.5028 13.5395 10.6343 12.8262 10.8835 12.1507C11.2648 11.1645 12.046 10.3882 13.0323 10.0107C13.7005 9.76339 14.406 9.63192 15.1185 9.62196C16.3073 9.56821 16.641 9.55321 19.6873 9.55321C22.7335 9.55321 23.046 9.55321 24.2548 9.62196C24.9678 9.63054 25.674 9.76205 26.3423 10.0107C26.8284 10.1986 27.2699 10.486 27.6385 10.8545C28.007 11.223 28.2944 11.6646 28.4823 12.1507C28.728 12.8194 28.8594 13.5247 28.871 14.237C28.9248 15.4257 28.9385 15.7595 28.9385 18.8057C28.9385 21.8507 28.9385 22.1782 28.8848 23.3732H28.871V23.372Z" fill="white"/>
</svg>
