<svg width="39" height="38" viewBox="0 0 39 38" fill="none" xmlns="http://www.w3.org/2000/svg">
<rect x="0.90918" width="37.6364" height="37.6364" rx="5" fill="#19647E"/>
<path d="M26.6988 25.7921L26.699 25.7918C27.0416 25.4517 27.2543 25.1232 27.432 24.6801L26.6988 25.7921ZM26.6988 25.7921C26.3558 26.135 26.0296 26.3477 25.5868 26.5254C24.9474 26.7794 23.8544 26.881 22.7246 26.917C21.9146 26.9429 21.097 26.9349 20.429 26.9284C20.1684 26.9259 19.9306 26.9236 19.7249 26.9236C19.5185 26.9236 19.2798 26.9259 19.0182 26.9284C18.3504 26.935 17.5333 26.9429 16.7238 26.9174C15.5935 26.8817 14.4998 26.7807 13.8604 26.5279C13.4174 26.3501 13.0888 26.1374 12.7487 25.7948L12.7484 25.7946M26.6988 25.7921L12.7484 25.7946M12.7484 25.7946C12.4055 25.4516 12.1928 25.1254 12.0151 24.6826C11.7623 24.0418 11.6614 22.9482 11.6257 21.8182C11.6001 21.0091 11.6081 20.1923 11.6146 19.5248C11.6171 19.2632 11.6195 19.0245 11.6195 18.8182C11.6195 18.6118 11.6171 18.3731 11.6146 18.1115C11.6081 17.4437 11.6001 16.6266 11.6257 15.8172C11.6614 14.6869 11.7623 13.5933 12.0151 12.9538M12.7484 25.7946L12.0151 12.9538M12.0151 12.9538C12.1929 12.5107 12.4056 12.1822 12.7482 11.842C13.0915 11.5011 13.4179 11.286 13.8605 11.1084C14.4999 10.8557 15.5935 10.7547 16.7238 10.719C17.5333 10.6934 18.3504 10.7014 19.0182 10.7079C19.2798 10.7105 19.5185 10.7128 19.7249 10.7128C19.9312 10.7128 20.1699 10.7105 20.4315 10.7079C21.0993 10.7014 21.9164 10.6934 22.7259 10.719C23.8562 10.7547 24.9498 10.8557 25.5892 11.1084C26.0323 11.2862 26.3608 11.4989 26.701 11.8415L26.7013 11.8418C27.0442 12.1847 27.2569 12.5109 27.4345 12.9537C27.6874 13.5932 27.7883 14.6868 27.824 15.8172C27.8496 16.6266 27.8416 17.4437 27.8351 18.1115C27.8326 18.3731 27.8302 18.6118 27.8302 18.8182C27.8302 19.0239 27.8326 19.2617 27.8351 19.5223C27.8416 20.1903 27.8495 21.008 27.8237 21.8179C27.7877 22.9475 27.6861 24.0404 27.4322 24.6798L12.0151 12.9538ZM23.7676 13.4797C23.7676 12.7615 24.3476 12.1814 25.0657 12.1814C25.0658 12.1814 25.0658 12.1814 25.0659 12.1814V12.2814L23.7676 13.4797ZM23.7676 13.4797C23.7676 14.1978 24.3477 14.778 25.0659 14.778M23.7676 13.4797L25.0659 14.778M25.0659 14.778C25.7838 14.778 26.3641 14.2005 26.3641 13.4798L25.0659 14.778ZM29.7612 22.9514C29.8305 21.758 29.8288 20.572 29.827 19.3824C29.8267 19.1944 29.8264 19.0064 29.8264 18.8182C29.8264 18.6498 29.8266 18.4815 29.8268 18.3133L28.0478 27.1386C26.8771 28.3094 25.4561 28.6747 23.8551 28.7522M29.7612 22.9514C29.7612 22.9515 29.7612 22.9516 29.7612 22.9517L29.6614 22.9459L29.7613 22.9507C29.7613 22.9509 29.7612 22.9511 29.7612 22.9514ZM29.7612 22.9514C29.683 24.5647 29.3163 26.0116 28.1185 27.2094C26.9232 28.4046 25.4738 28.7739 23.8604 28.8521M23.8604 28.8521C23.8605 28.8521 23.8606 28.852 23.8607 28.852L23.8551 28.7522M23.8604 28.8521C23.8602 28.8521 23.8601 28.8521 23.8599 28.8521L23.8551 28.7522M23.8604 28.8521C22.6472 28.9203 21.4418 28.919 20.2322 28.9176C20.064 28.9174 19.8957 28.9172 19.7274 28.9172C19.5593 28.9172 19.3913 28.9174 19.2234 28.9176C18.0154 28.919 16.8097 28.9203 15.5944 28.8521M23.8551 28.7522L29.6614 14.6905L29.7613 14.6856C29.7613 14.6855 29.7612 14.6853 29.7612 14.6851C29.683 13.0717 29.3138 11.6223 28.1185 10.427C26.9207 9.22915 25.4737 8.86248 23.8603 8.78428C22.645 8.71604 21.4393 8.71739 20.2313 8.71873C20.0634 8.71892 19.8954 8.7191 19.7274 8.7191C19.559 8.7191 19.3907 8.71892 19.2225 8.71873C18.0129 8.71739 16.8075 8.71605 15.5944 8.78428C13.9809 8.86248 12.5315 9.23167 11.3362 10.427C10.1383 11.6248 9.77166 13.0718 9.69346 14.6852C9.62522 15.9006 9.62657 17.1063 9.62791 18.3142C9.6281 18.4821 9.62828 18.6501 9.62828 18.8182C9.62828 18.9862 9.6281 19.1542 9.62791 19.3222C9.62657 20.5306 9.62522 21.7379 9.69346 22.9511C9.77166 24.5646 10.1409 26.014 11.3362 27.2094C12.534 28.4072 13.981 28.7739 15.5944 28.8521M15.5944 28.8521C15.5943 28.8521 15.5942 28.8521 15.594 28.852L15.5996 28.7522L15.5948 28.8521C15.5947 28.8521 15.5945 28.8521 15.5944 28.8521ZM19.7249 13.5873C16.8303 13.5873 14.494 15.9236 14.494 18.8182C14.494 21.7128 16.8303 24.049 19.7249 24.049C22.6194 24.049 24.9557 21.7128 24.9557 18.8182C24.9557 15.9236 22.6194 13.5873 19.7249 13.5873ZM19.7249 22.0529C17.9439 22.0529 16.4902 20.5992 16.4902 18.8182C16.4902 17.0372 17.9439 15.5835 19.7249 15.5835C21.5058 15.5835 22.9595 17.0372 22.9595 18.8182C22.9595 20.5992 21.5058 22.0529 19.7249 22.0529Z" fill="white" stroke="white" stroke-width="0.2"/>
</svg>
