<svg width="569" height="93" viewBox="0 0 569 93" fill="none" xmlns="http://www.w3.org/2000/svg">
<path d="M371.299 34.1177C375.413 35.4039 378.636 37.5701 380.967 40.6163C383.299 43.5948 384.465 47.2841 384.465 51.6842C384.465 57.912 381.996 62.7183 377.059 66.103C372.19 69.42 365.058 71.0785 355.664 71.0785H318.428V0H353.606C362.384 0 369.104 1.6585 373.767 4.9755C378.499 8.29249 380.865 12.7941 380.865 18.4804C380.865 21.9328 380.007 25.0129 378.293 27.7206C376.647 30.4284 374.316 32.5607 371.299 34.1177ZM334.989 12.388V29.1422H351.549C355.664 29.1422 358.784 28.4314 360.91 27.0098C363.035 25.5883 364.098 23.4898 364.098 20.7143C364.098 17.9389 363.035 15.8742 360.91 14.5203C358.784 13.0988 355.664 12.388 351.549 12.388H334.989ZM354.429 58.6905C358.818 58.6905 362.11 57.9797 364.304 56.5582C366.567 55.1366 367.698 52.9366 367.698 49.958C367.698 44.0687 363.275 41.124 354.429 41.124H334.989V58.6905H354.429Z" fill="#28AFB0"/>
<path d="M418.27 15.6373C426.841 15.6373 433.425 17.6681 438.019 21.7297C442.613 25.7236 444.911 31.7822 444.911 39.9055V71.0785H429.893V64.2753C426.876 69.3523 421.253 71.8908 413.024 71.8908C408.772 71.8908 405.069 71.18 401.915 69.7585C398.829 68.3369 396.463 66.3738 394.817 63.8691C393.172 61.3644 392.349 58.5213 392.349 55.3397C392.349 50.2627 394.269 46.2687 398.109 43.3579C402.018 40.4471 408.018 38.9916 416.11 38.9916H428.864C428.864 35.5392 427.801 32.8992 425.676 31.0715C423.55 29.176 420.361 28.2283 416.11 28.2283C413.161 28.2283 410.247 28.7022 407.366 29.6499C404.555 30.5299 402.155 31.7484 400.166 33.3054L394.406 22.2374C397.423 20.1389 401.023 18.5143 405.206 17.3635C409.458 16.2127 413.812 15.6373 418.27 15.6373ZM417.035 61.229C419.778 61.229 422.213 60.6198 424.338 59.4013C426.464 58.1151 427.973 56.2536 428.864 53.8166V48.2318H417.858C411.275 48.2318 407.984 50.3642 407.984 54.6289C407.984 56.6597 408.772 58.2844 410.349 59.5029C411.995 60.6536 414.224 61.229 417.035 61.229Z" fill="#28AFB0"/>
<path d="M478.051 71.8908C473.457 71.8908 468.965 71.3493 464.576 70.2662C460.188 69.1154 456.69 67.6938 454.085 66.0015L459.433 54.6289C461.902 56.1859 464.885 57.472 468.382 58.4874C471.879 59.4352 475.308 59.909 478.668 59.909C485.457 59.909 488.851 58.2505 488.851 54.9335C488.851 53.3766 487.926 52.2596 486.074 51.5827C484.223 50.9057 481.377 50.3303 477.537 49.8565C473.011 49.1796 469.274 48.4011 466.325 47.521C463.376 46.641 460.805 45.0841 458.61 42.8502C456.485 40.6163 455.422 37.4347 455.422 33.3054C455.422 29.853 456.416 26.8067 458.405 24.1667C460.462 21.4589 463.411 19.3604 467.251 17.8712C471.159 16.3819 475.754 15.6373 481.034 15.6373C484.943 15.6373 488.817 16.0773 492.657 16.9573C496.566 17.7696 499.789 18.9204 502.326 20.4097L496.977 31.6807C492.109 28.9729 486.794 27.6191 481.034 27.6191C477.605 27.6191 475.034 28.0929 473.319 29.0406C471.605 29.9884 470.748 31.2068 470.748 32.6961C470.748 34.3885 471.674 35.5731 473.525 36.25C475.377 36.927 478.325 37.5701 482.371 38.1793C486.897 38.9239 490.6 39.7363 493.48 40.6163C496.36 41.4286 498.863 42.9517 500.989 45.1856C503.115 47.4195 504.178 50.5334 504.178 54.5274C504.178 57.912 503.149 60.9244 501.092 63.5645C499.035 66.2045 496.017 68.2692 492.04 69.7585C488.131 71.18 483.468 71.8908 478.051 71.8908Z" fill="#28AFB0"/>
<path d="M568.286 43.9671C568.286 44.1702 568.183 45.5918 567.977 48.2318H526.113C526.867 51.6165 528.65 54.2904 531.462 56.2535C534.273 58.2167 537.77 59.1982 541.953 59.1982C544.833 59.1982 547.371 58.7921 549.565 57.9797C551.828 57.0997 553.919 55.7458 555.839 53.9181L564.377 63.0568C559.165 68.9461 551.554 71.8908 541.542 71.8908C535.302 71.8908 529.781 70.7062 524.981 68.3369C520.181 65.8999 516.478 62.5491 513.872 58.2844C511.267 54.0197 509.964 49.1796 509.964 43.764C509.964 38.4162 511.232 33.61 513.769 29.3453C516.375 25.0129 519.907 21.662 524.364 19.2927C528.89 16.8558 533.93 15.6373 539.485 15.6373C544.902 15.6373 549.805 16.7881 554.194 19.0897C558.582 21.3912 562.011 24.7082 564.48 29.0406C567.017 33.3054 568.286 38.2808 568.286 43.9671ZM539.588 27.6191C535.953 27.6191 532.902 28.6345 530.433 30.6653C527.964 32.6961 526.456 35.4716 525.907 38.9916H553.165C552.617 35.5392 551.108 32.7976 548.639 30.7668C546.171 28.6683 543.153 27.6191 539.588 27.6191Z" fill="#28AFB0"/>
<path d="M115.101 1.41028L91.546 72.4888H73.6483L57.8077 24.3585L41.4529 72.4888H23.658L0 1.41028H17.2806L33.5326 51.3683L50.5046 1.41028H65.9337L82.3914 51.7745L99.1577 1.41028H115.101Z" fill="#37392E"/>
<path d="M141.474 17.0476C150.046 17.0476 156.629 19.0784 161.224 23.14C165.818 27.1339 168.115 33.1925 168.115 41.3158V72.4888H153.098V65.6855C150.08 70.7626 144.457 73.3011 136.229 73.3011C131.977 73.3011 128.274 72.5903 125.12 71.1687C122.034 69.7472 119.668 67.784 118.022 65.2794C116.376 62.7747 115.554 59.9316 115.554 56.75C115.554 51.6729 117.474 47.679 121.314 44.7682C125.222 41.8573 131.223 40.4019 139.314 40.4019H152.069C152.069 36.9495 151.006 34.3095 148.88 32.4817C146.755 30.5863 143.566 29.6386 139.314 29.6386C136.366 29.6386 133.451 30.1125 130.571 31.0602C127.76 31.9402 125.36 33.1587 123.371 34.7156L117.611 23.6477C120.628 21.5492 124.228 19.9245 128.411 18.7737C132.663 17.6229 137.017 17.0476 141.474 17.0476ZM140.24 62.6393C142.983 62.6393 145.417 62.0301 147.543 60.8116C149.669 59.5254 151.178 57.6638 152.069 55.2269V49.6421H141.063C134.48 49.6421 131.188 51.7745 131.188 56.0392C131.188 58.07 131.977 59.6946 133.554 60.9131C135.2 62.0639 137.429 62.6393 140.24 62.6393Z" fill="#37392E"/>
<path d="M240.328 17.8599V63.3501C240.328 73.3688 237.688 80.8151 232.408 85.6891C227.128 90.563 219.413 93 209.264 93C203.916 93 198.841 92.3569 194.041 91.0707C189.241 89.7845 185.264 87.923 182.109 85.486L188.487 74.1134C190.818 76.0089 193.767 77.4981 197.333 78.5812C200.898 79.732 204.464 80.3074 208.03 80.3074C213.585 80.3074 217.665 79.0551 220.271 76.5504C222.945 74.1134 224.282 70.3903 224.282 65.3809V63.0455C220.099 67.581 214.27 69.8487 206.796 69.8487C201.721 69.8487 197.058 68.7656 192.807 66.5994C188.624 64.3655 185.298 61.2516 182.829 57.2577C180.361 53.2637 179.126 48.6606 179.126 43.4481C179.126 38.2357 180.361 33.6325 182.829 29.6386C185.298 25.6447 188.624 22.5646 192.807 20.3984C197.058 18.1645 201.721 17.0476 206.796 17.0476C214.819 17.0476 220.922 19.6538 225.105 24.8662V17.8599H240.328ZM209.985 56.8515C214.236 56.8515 217.699 55.633 220.373 53.196C223.116 50.6914 224.488 47.4421 224.488 43.4481C224.488 39.4542 223.116 36.2387 220.373 33.8018C217.699 31.2971 214.236 30.0448 209.985 30.0448C205.733 30.0448 202.236 31.2971 199.493 33.8018C196.75 36.2387 195.378 39.4542 195.378 43.4481C195.378 47.4421 196.75 50.6914 199.493 53.196C202.236 55.633 205.733 56.8515 209.985 56.8515Z" fill="#37392E"/>
<path d="M309.471 45.3774C309.471 45.5805 309.368 47.0021 309.162 49.6421H267.298C268.052 53.0268 269.835 55.7007 272.647 57.6638C275.458 59.6269 278.956 60.6085 283.139 60.6085C286.019 60.6085 288.556 60.2023 290.75 59.39C293.013 58.51 295.105 57.1561 297.025 55.3284L305.562 64.4671C300.351 70.3564 292.739 73.3011 282.727 73.3011C276.487 73.3011 270.967 72.1165 266.167 69.7472C261.366 67.3102 257.663 63.9594 255.058 59.6946C252.452 55.4299 251.149 50.5898 251.149 45.1743C251.149 39.8265 252.418 35.0203 254.955 30.7555C257.561 26.4231 261.092 23.0723 265.549 20.703C270.075 18.266 275.115 17.0476 280.67 17.0476C286.087 17.0476 290.99 18.1983 295.379 20.4999C299.768 22.8015 303.196 26.1185 305.665 30.4509C308.202 34.7156 309.471 39.6911 309.471 45.3774ZM280.773 29.0294C277.138 29.0294 274.087 30.0448 271.618 32.0756C269.15 34.1064 267.641 36.8818 267.092 40.4019H294.35C293.802 36.9495 292.293 34.2079 289.825 32.1771C287.356 30.0786 284.339 29.0294 280.773 29.0294Z" fill="#37392E"/>
</svg>
