<svg width="124" height="21" viewBox="0 0 124 21" fill="none" xmlns="http://www.w3.org/2000/svg">
<path d="M80.9154 7.70399C81.812 7.99442 82.5144 8.48356 83.0225 9.17142C83.5306 9.84399 83.7847 10.6771 83.7847 11.6706C83.7847 13.0769 83.2467 14.1622 82.1707 14.9265C81.1097 15.6755 79.5555 16.05 77.5082 16.05H69.3936V0H77.0598C78.9727 0 80.4372 0.3745 81.4534 1.1235C82.4845 1.8725 83.0001 2.889 83.0001 4.173C83.0001 4.95257 82.8133 5.64807 82.4397 6.25949C82.081 6.87092 81.5729 7.35242 80.9154 7.70399ZM73.0025 2.79728V6.58049H76.6115C77.5082 6.58049 78.1881 6.41999 78.6514 6.09899C79.1146 5.77799 79.3463 5.30414 79.3463 4.67742C79.3463 4.05071 79.1146 3.5845 78.6514 3.27878C78.1881 2.95778 77.5082 2.79728 76.6115 2.79728H73.0025ZM77.2392 13.2527C78.1956 13.2527 78.9129 13.0922 79.3911 12.7712C79.8843 12.4502 80.1308 11.9534 80.1308 11.2808C80.1308 9.95099 79.1669 9.28606 77.2392 9.28606H73.0025V13.2527H77.2392Z" fill="#28AFB0"/>
<path d="M91.1516 3.531C93.0197 3.531 94.4543 3.98957 95.4555 4.90671C96.4568 5.80857 96.9574 7.17664 96.9574 9.01092V16.05H93.6847V14.5138C93.0271 15.6602 91.8017 16.2334 90.0084 16.2334C89.0819 16.2334 88.2749 16.0729 87.5875 15.7519C86.915 15.4309 86.3994 14.9876 86.0408 14.4221C85.6821 13.8565 85.5028 13.2145 85.5028 12.4961C85.5028 11.3496 85.9212 10.4478 86.7581 9.79049C87.6099 9.13321 88.9175 8.80456 90.6809 8.80456H93.4605C93.4605 8.02499 93.2289 7.42885 92.7656 7.01614C92.3023 6.58814 91.6074 6.37414 90.6809 6.37414C90.0383 6.37414 89.4032 6.48114 88.7755 6.69514C88.1628 6.89385 87.6398 7.16899 87.2064 7.52056L85.9511 5.02135C86.6087 4.5475 87.3932 4.18064 88.3048 3.92078C89.2313 3.66093 90.1803 3.531 91.1516 3.531ZM90.8827 13.8259C91.4804 13.8259 92.0109 13.6883 92.4742 13.4132C92.9375 13.1228 93.2662 12.7024 93.4605 12.1521V10.8911H91.062C89.6274 10.8911 88.91 11.3726 88.91 12.3356C88.91 12.7941 89.0819 13.161 89.4256 13.4361C89.7843 13.696 90.27 13.8259 90.8827 13.8259Z" fill="#28AFB0"/>
<path d="M104.18 16.2334C103.178 16.2334 102.199 16.1111 101.243 15.8666C100.287 15.6067 99.5245 15.2857 98.9566 14.9036L100.122 12.3356C100.66 12.6871 101.31 12.9776 102.072 13.2068C102.835 13.4208 103.582 13.5278 104.314 13.5278C105.794 13.5278 106.533 13.1533 106.533 12.4043C106.533 12.0528 106.332 11.8006 105.928 11.6477C105.525 11.4948 104.904 11.3649 104.067 11.2579C103.081 11.1051 102.267 10.9293 101.624 10.7306C100.982 10.5318 100.421 10.1803 99.9429 9.67585C99.4797 9.17142 99.248 8.45299 99.248 7.52056C99.248 6.74099 99.4647 6.05314 99.8981 5.457C100.346 4.84557 100.989 4.37171 101.826 4.03542C102.678 3.69914 103.679 3.531 104.83 3.531C105.681 3.531 106.526 3.63035 107.363 3.82907C108.214 4.0125 108.917 4.27235 109.47 4.60864L108.304 7.15371C107.243 6.54228 106.085 6.23657 104.83 6.23657C104.082 6.23657 103.522 6.34356 103.148 6.55756C102.775 6.77156 102.588 7.04671 102.588 7.38299C102.588 7.76513 102.79 8.03263 103.193 8.18549C103.597 8.33835 104.239 8.48356 105.121 8.62113C106.107 8.78928 106.914 8.9727 107.542 9.17142C108.17 9.35485 108.715 9.69878 109.178 10.2032C109.642 10.7076 109.873 11.4108 109.873 12.3126C109.873 13.0769 109.649 13.7571 109.201 14.3533C108.752 14.9494 108.095 15.4156 107.228 15.7519C106.376 16.0729 105.36 16.2334 104.18 16.2334Z" fill="#28AFB0"/>
<path d="M123.844 9.92806C123.844 9.97392 123.822 10.2949 123.777 10.8911H114.653C114.818 11.6553 115.206 12.2591 115.819 12.7024C116.432 13.1457 117.194 13.3673 118.106 13.3673C118.733 13.3673 119.286 13.2756 119.764 13.0922C120.257 12.8935 120.713 12.5878 121.132 12.1751L122.992 14.2386C121.856 15.5685 120.198 16.2334 118.016 16.2334C116.656 16.2334 115.453 15.9659 114.407 15.4309C113.361 14.8806 112.554 14.124 111.986 13.161C111.418 12.198 111.134 11.1051 111.134 9.8822C111.134 8.67463 111.411 7.58935 111.964 6.62635C112.531 5.64807 113.301 4.89142 114.272 4.35642C115.259 3.80614 116.357 3.531 117.568 3.531C118.748 3.531 119.817 3.79085 120.773 4.31057C121.729 4.83028 122.477 5.57928 123.015 6.55756C123.568 7.52056 123.844 8.64406 123.844 9.92806ZM117.59 6.23657C116.798 6.23657 116.133 6.46585 115.595 6.92442C115.057 7.38299 114.728 8.00971 114.609 8.80456H120.549C120.429 8.02499 120.101 7.40592 119.563 6.94735C119.025 6.47349 118.367 6.23657 117.59 6.23657Z" fill="#28AFB0"/>
<path d="M25.0836 0.318359L19.9503 16.3683H16.0499L12.5978 5.50021L9.03367 16.3683H5.15569L0 0.318359H3.7659L7.30764 11.5992L11.0063 0.318359H14.3687L17.9553 11.6909L21.6091 0.318359H25.0836Z" fill="white"/>
<path d="M30.831 3.84936C32.699 3.84936 34.1336 4.30793 35.1349 5.22507C36.1362 6.12692 36.6368 7.49499 36.6368 9.32928V16.3683H33.364V14.8321C32.7065 15.9786 31.4811 16.5518 29.6878 16.5518C28.7613 16.5518 27.9543 16.3913 27.2669 16.0703C26.5944 15.7493 26.0788 15.306 25.7202 14.7404C25.3615 14.1748 25.1822 13.5328 25.1822 12.8144C25.1822 11.668 25.6006 10.7661 26.4375 10.1088C27.2893 9.45156 28.5969 9.12292 30.3603 9.12292H33.1399C33.1399 8.34335 32.9082 7.74721 32.445 7.33449C31.9817 6.9065 31.2868 6.6925 30.3603 6.6925C29.7177 6.6925 29.0826 6.7995 28.4549 7.01349C27.8422 7.21221 27.3192 7.48735 26.8858 7.83892L25.6305 5.33971C26.288 4.86585 27.0726 4.499 27.9842 4.23914C28.9107 3.97928 29.8597 3.84936 30.831 3.84936ZM30.562 14.1443C31.1598 14.1443 31.6903 14.0067 32.1536 13.7316C32.6168 13.4411 32.9456 13.0208 33.1399 12.4705V11.2094H30.7414C29.3067 11.2094 28.5894 11.6909 28.5894 12.6539C28.5894 13.1125 28.7613 13.4793 29.105 13.7545C29.4636 14.0143 29.9493 14.1443 30.562 14.1443Z" fill="white"/>
<path d="M52.3739 4.03278V14.3048C52.3739 16.5671 51.7986 18.2485 50.6479 19.3491C49.4972 20.4496 47.816 20.9999 45.6042 20.9999C44.4386 20.9999 43.3328 20.8547 42.2867 20.5643C41.2406 20.2738 40.3738 19.8535 39.6864 19.3032L41.0762 16.7352C41.5843 17.1632 42.2269 17.4995 43.004 17.7441C43.7811 18.0039 44.5582 18.1338 45.3353 18.1338C46.5457 18.1338 47.4349 17.8511 48.0028 17.2855C48.5856 16.7352 48.877 15.8945 48.877 14.7633V14.236C47.9654 15.2601 46.6952 15.7722 45.0663 15.7722C43.9604 15.7722 42.9442 15.5276 42.0177 15.0385C41.1061 14.5341 40.3813 13.8309 39.8433 12.9291C39.3053 12.0272 39.0363 10.9878 39.0363 9.81078C39.0363 8.63378 39.3053 7.59435 39.8433 6.6925C40.3813 5.79064 41.1061 5.09514 42.0177 4.606C42.9442 4.10157 43.9604 3.84936 45.0663 3.84936C46.8147 3.84936 48.1447 4.43786 49.0563 5.61485V4.03278H52.3739ZM45.7612 12.8373C46.6877 12.8373 47.4424 12.5622 48.0252 12.0119C48.6229 11.4463 48.9218 10.7126 48.9218 9.81078C48.9218 8.90892 48.6229 8.18285 48.0252 7.63257C47.4424 7.06699 46.6877 6.78421 45.7612 6.78421C44.8346 6.78421 44.0725 7.06699 43.4747 7.63257C42.877 8.18285 42.5781 8.90892 42.5781 9.81078C42.5781 10.7126 42.877 11.4463 43.4747 12.0119C44.0725 12.5622 44.8346 12.8373 45.7612 12.8373Z" fill="white"/>
<path d="M67.4419 10.2464C67.4419 10.2923 67.4195 10.6133 67.3746 11.2094H58.2513C58.4157 11.9737 58.8042 12.5775 59.4169 13.0208C60.0296 13.4641 60.7918 13.6857 61.7034 13.6857C62.331 13.6857 62.8839 13.594 63.3621 13.4106C63.8553 13.2118 64.3111 12.9061 64.7295 12.4934L66.5901 14.557C65.4543 15.8868 63.7955 16.5518 61.6137 16.5518C60.2538 16.5518 59.0508 16.2843 58.0047 15.7493C56.9586 15.199 56.1516 14.4423 55.5838 13.4793C55.0159 12.5163 54.732 11.4234 54.732 10.2006C54.732 8.99299 55.0084 7.90771 55.5614 6.94471C56.1292 5.96642 56.8988 5.20978 57.8702 4.67478C58.8565 4.1245 59.9549 3.84936 61.1654 3.84936C62.346 3.84936 63.4145 4.10921 64.3709 4.62893C65.3273 5.14864 66.0745 5.89764 66.6125 6.87592C67.1654 7.83892 67.4419 8.96242 67.4419 10.2464ZM61.1878 6.55492C60.3958 6.55492 59.7307 6.78421 59.1928 7.24278C58.6548 7.70135 58.326 8.32806 58.2065 9.12292H64.1467C64.0272 8.34335 63.6984 7.72428 63.1604 7.26571C62.6224 6.79185 61.9649 6.55492 61.1878 6.55492Z" fill="white"/>
</svg>
