<svg width="15" height="16" viewBox="0 0 15 16" fill="none" xmlns="http://www.w3.org/2000/svg">
<path d="M7.5 0.608398C6.01664 0.608398 4.56659 1.04827 3.33323 1.87238C2.09986 2.69649 1.13856 3.86783 0.570907 5.23827C0.00324963 6.60872 -0.145275 8.11672 0.144114 9.57157C0.433503 11.0264 1.14781 12.3628 2.1967 13.4117C3.2456 14.4606 4.58197 15.1749 6.03683 15.4643C7.49168 15.7537 8.99968 15.6051 10.3701 15.0375C11.7406 14.4698 12.9119 13.5085 13.736 12.2752C14.5601 11.0418 15 9.59176 15 8.1084C15 7.12348 14.806 6.14821 14.4291 5.23827C14.0522 4.32833 13.4997 3.50154 12.8033 2.8051C12.1069 2.10866 11.2801 1.55621 10.3701 1.1793C9.46019 0.802392 8.48492 0.608398 7.5 0.608398ZM7.5 12.6084C7.35167 12.6084 7.20666 12.5644 7.08332 12.482C6.95999 12.3996 6.86386 12.2825 6.80709 12.1454C6.75033 12.0084 6.73547 11.8576 6.76441 11.7121C6.79335 11.5666 6.86478 11.433 6.96967 11.3281C7.07456 11.2232 7.2082 11.1517 7.35368 11.1228C7.49917 11.0939 7.64997 11.1087 7.78701 11.1655C7.92406 11.2223 8.04119 11.3184 8.1236 11.4417C8.20602 11.5651 8.25 11.7101 8.25 11.8584C8.25 12.0573 8.17098 12.2481 8.03033 12.3887C7.88968 12.5294 7.69891 12.6084 7.5 12.6084ZM8.25 8.7384V9.6084C8.25 9.80731 8.17098 9.99807 8.03033 10.1387C7.88968 10.2794 7.69891 10.3584 7.5 10.3584C7.30109 10.3584 7.11032 10.2794 6.96967 10.1387C6.82902 9.99807 6.75 9.80731 6.75 9.6084V8.1084C6.75 7.90948 6.82902 7.71872 6.96967 7.57807C7.11032 7.43741 7.30109 7.3584 7.5 7.3584C7.72251 7.3584 7.94001 7.29242 8.12502 7.1688C8.31002 7.04518 8.45422 6.86948 8.53937 6.66392C8.62452 6.45835 8.64679 6.23215 8.60339 6.01392C8.55998 5.79569 8.45283 5.59524 8.2955 5.4379C8.13816 5.28057 7.93771 5.17342 7.71948 5.13001C7.50125 5.08661 7.27505 5.10888 7.06948 5.19403C6.86392 5.27918 6.68822 5.42338 6.5646 5.60838C6.44098 5.79339 6.375 6.01089 6.375 6.2334C6.375 6.43231 6.29598 6.62307 6.15533 6.76373C6.01468 6.90438 5.82391 6.9834 5.625 6.9834C5.42609 6.9834 5.23532 6.90438 5.09467 6.76373C4.95402 6.62307 4.875 6.43231 4.875 6.2334C4.87304 5.74612 5.00675 5.26792 5.26115 4.85233C5.51556 4.43674 5.88062 4.10016 6.31546 3.88028C6.75031 3.66039 7.23778 3.56589 7.72329 3.60734C8.2088 3.6488 8.67319 3.82457 9.06447 4.11498C9.45575 4.4054 9.75847 4.79899 9.93874 5.2517C10.119 5.7044 10.1697 6.19835 10.0852 6.67824C10.0006 7.15813 9.78419 7.60501 9.46008 7.96886C9.13596 8.33272 8.71697 8.59917 8.25 8.7384Z" fill="#FFE178"/>
</svg>
