<svg width="38" height="38" viewBox="0 0 38 38" fill="none" xmlns="http://www.w3.org/2000/svg">
<rect x="0.36377" width="37.6364" height="37.6364" rx="5" fill="#19647E"/>
<g clip-path="url(#clip0)">
<path d="M21.2763 22.2304C20.8283 22.6784 19.8684 22.8383 19.1843 22.8383C18.4983 22.8383 17.5403 22.6784 17.0923 22.2304C16.9863 22.1244 16.8163 22.1244 16.7104 22.2304C16.6043 22.3365 16.6043 22.5064 16.7104 22.6123C17.4204 23.3223 18.7844 23.3783 19.1843 23.3783C19.5842 23.3783 20.9462 23.3223 21.6584 22.6123C21.7623 22.5063 21.7623 22.3363 21.6584 22.2304C21.5523 22.1244 21.3823 22.1244 21.2763 22.2304Z" fill="white"/>
<path d="M17.9322 19.8604C17.9322 19.2863 17.4642 18.8184 16.8902 18.8184C16.3163 18.8184 15.8481 19.2863 15.8481 19.8604C15.8481 20.4343 16.3163 20.9024 16.8902 20.9024C17.4642 20.9024 17.9322 20.4344 17.9322 19.8604Z" fill="white"/>
<path d="M19.1821 8.81836C13.6601 8.81836 9.18213 13.2964 9.18213 18.8184C9.18213 24.3404 13.6601 28.8184 19.1821 28.8184C24.7041 28.8184 29.1821 24.3404 29.1821 18.8184C29.1821 13.2964 24.7041 8.81836 19.1821 8.81836ZM24.9841 20.1523C25.0061 20.2963 25.0182 20.4424 25.0182 20.5904C25.0182 22.8343 22.4062 24.6524 19.1841 24.6524C15.9621 24.6524 13.3501 22.8343 13.3501 20.5904C13.3501 20.4404 13.3621 20.2924 13.3841 20.1483C12.8761 19.9203 12.5221 19.4104 12.5221 18.8184C12.5221 18.0144 13.1741 17.3604 13.9801 17.3604C14.3721 17.3604 14.7261 17.5143 14.9881 17.7664C16.0001 17.0364 17.4002 16.5703 18.9581 16.5303C18.9581 16.5103 19.6861 13.0423 19.6861 13.0423C19.7002 12.9744 19.7401 12.9163 19.7981 12.8784C19.8561 12.8404 19.9261 12.8284 19.9942 12.8424L22.4182 13.3583C22.5882 13.0144 22.9381 12.7763 23.3481 12.7763C23.9241 12.7763 24.3901 13.2423 24.3901 13.8184C24.3901 14.3944 23.9241 14.8604 23.3481 14.8604C22.7901 14.8604 22.3381 14.4203 22.3122 13.8684L20.1421 13.4064L19.4781 16.5324C21.0081 16.5863 22.3822 17.0503 23.3781 17.7704C23.6401 17.5165 23.9961 17.3604 24.3901 17.3604C25.1962 17.3604 25.8481 18.0124 25.8481 18.8184C25.8481 19.4144 25.4901 19.9243 24.9841 20.1523Z" fill="white"/>
<path d="M21.4742 18.8184C20.9001 18.8184 20.4321 19.2863 20.4321 19.8604C20.4321 20.4343 20.9001 20.9024 21.4742 20.9024C22.048 20.9024 22.5162 20.4343 22.5162 19.8604C22.5162 19.2863 22.0482 18.8184 21.4742 18.8184Z" fill="white"/>
</g>
<defs>
<clipPath id="clip0">
<rect width="20" height="20" fill="white" transform="translate(9.18213 8.81836)"/>
</clipPath>
</defs>
</svg>
