<svg width="22" height="23" viewBox="0 0 22 23" fill="none" xmlns="http://www.w3.org/2000/svg">
<rect x="4.5" y="4.5" width="13" height="12" fill="white" stroke="white"/>
<path opacity="0.9" d="M13.825 14.5179L11.3786 12.0714L11.025 11.7179L10.6714 12.0714L8.225 14.5179L7.53211 13.825L9.97855 11.3786L10.3321 11.025L9.97855 10.6714L7.53211 8.225L8.225 7.53211L10.6714 9.97855L11.025 10.3321L11.3786 9.97855L13.825 7.53211L14.5179 8.225L12.0714 10.6714L11.7179 11.025L12.0714 11.3786L14.5179 13.825L13.825 14.5179ZM18.4786 3.57145C14.3833 -0.523815 7.66671 -0.523815 3.57145 3.57145C-0.523815 7.66671 -0.523815 14.3833 3.57145 18.4786C7.66671 22.5738 14.2833 22.5738 18.3786 18.4786C22.4673 14.3898 22.5803 7.67315 18.4786 3.57145Z" fill="#37392E" stroke="white"/>
</svg>
