<svg width="27" height="28" viewBox="0 0 27 28" fill="none" xmlns="http://www.w3.org/2000/svg">
<path d="M25.7609 25.3718L25.7611 25.3717C25.8077 25.3236 25.8444 25.267 25.8693 25.2051C25.8941 25.1433 25.9069 25.0773 25.9069 25.0108C25.9069 24.9443 25.8941 24.8782 25.8693 24.8164L25.6373 24.9097L25.8693 24.8164C25.8444 24.7546 25.8077 24.6979 25.7611 24.6499L17.7928 16.4428C19.0041 14.7546 19.6568 12.7178 19.6568 10.5815C19.6568 7.93592 18.6539 5.45289 16.8394 3.58078C15.0243 1.70793 12.6036 0.675568 10.0318 0.675568C7.45993 0.675568 5.03942 1.71123 3.22451 3.58046C1.40644 5.44972 0.40686 7.93624 0.40686 10.5815C0.40686 13.2237 1.40961 15.7132 3.2242 17.5823C5.0393 19.4551 7.45688 20.4875 10.0318 20.4875C12.1063 20.4875 14.0799 19.8166 15.7177 18.5766L23.6773 26.7717C23.6774 26.7717 23.6774 26.7717 23.6774 26.7717C23.7241 26.8198 23.7798 26.8583 23.8418 26.8848C23.9037 26.9112 23.9704 26.9249 24.038 26.9249C24.1056 26.9249 24.1723 26.9112 24.2342 26.8848C24.2962 26.8583 24.352 26.8197 24.3987 26.7717L25.7609 25.3718ZM14.8026 15.5055C13.5237 16.8196 11.8317 17.5413 10.0318 17.5413C8.23197 17.5413 6.53998 16.8197 5.2611 15.5056C3.98518 14.1882 3.28185 12.4421 3.28185 10.5815C3.28185 8.7207 3.9854 6.97138 5.26121 5.65733C6.54008 4.34335 8.23202 3.62175 10.0318 3.62175C11.8321 3.62175 13.5269 4.3405 14.8022 5.65712C16.0783 6.9746 16.7818 8.72087 16.7818 10.5815C16.7818 12.4423 16.0783 14.1915 14.8026 15.5055Z" fill="#908D8D" stroke="#908D8D" stroke-width="0.5"/>
</svg>
