<svg width="39" height="39" viewBox="0 0 39 39" fill="none" xmlns="http://www.w3.org/2000/svg">
<rect x="0.45459" y="0.627441" width="37.6364" height="37.6364" rx="5" fill="#19647E"/>
<path d="M29.2729 13.2446C28.5292 13.5708 27.7367 13.7871 26.9104 13.8921C27.7604 13.3846 28.4092 12.5871 28.7142 11.6258C27.9217 12.0983 27.0467 12.4321 26.1142 12.6183C25.3617 11.8171 24.2892 11.3208 23.1192 11.3208C20.8492 11.3208 19.0217 13.1633 19.0217 15.4221C19.0217 15.7471 19.0492 16.0596 19.1167 16.3571C15.7079 16.1908 12.6917 14.5571 10.6654 12.0683C10.3117 12.6821 10.1042 13.3846 10.1042 14.1408C10.1042 15.5608 10.8354 16.8196 11.9254 17.5483C11.2667 17.5358 10.6204 17.3446 10.0729 17.0433C10.0729 17.0558 10.0729 17.0721 10.0729 17.0883C10.0729 19.0808 11.4942 20.7358 13.3579 21.1171C13.0242 21.2083 12.6604 21.2521 12.2829 21.2521C12.0204 21.2521 11.7554 21.2371 11.5067 21.1821C12.0379 22.8058 13.5454 23.9996 15.3379 24.0383C13.9429 25.1296 12.1717 25.7871 10.2542 25.7871C9.91795 25.7871 9.59545 25.7721 9.27295 25.7308C11.0892 26.9021 13.2417 27.5708 15.5629 27.5708C23.1079 27.5708 27.2329 21.3208 27.2329 15.9033C27.2329 15.7221 27.2267 15.5471 27.2179 15.3733C28.0317 14.7958 28.7154 14.0746 29.2729 13.2446Z" fill="white"/>
</svg>
