<svg width="351" height="477" viewBox="0 0 351 477" fill="none" xmlns="http://www.w3.org/2000/svg">
<path d="M93.2334 283.279C89.5117 220.299 93.2334 200.612 33.3285 189.702C-26.5763 178.791 -3.53594 86.8923 84.8551 99.9008C173.246 112.909 379.352 172.916 305.204 176.273C231.056 179.63 313.653 275.044 244.043 303.421C174.433 331.798 96.9551 346.26 93.2334 283.279Z" fill="#EEE5E5"/>
<path d="M36.4599 345.7C58.2682 249.411 139.793 259.688 147.981 204.861C156.17 150.035 439.06 102.544 314.483 204.861C189.906 307.179 417.914 345.737 330.47 437.748C243.027 529.759 14.6516 441.989 36.4599 345.7Z" fill="#FAFAFA"/>
<path d="M98.646 328.359C98.7443 327.966 99.0718 327.663 99.3665 327.391C102.511 324.76 106.932 323.883 111.157 323.308C127.828 321.04 144.793 321.766 161.66 321.675L183.767 321.222C189.138 321.403 194.477 322.764 199.16 325.214C199.684 325.486 200.208 325.819 200.438 326.333C200.896 327.482 199.39 328.419 198.145 328.843C189.04 331.776 179.149 331.746 169.487 331.716C146.791 331.685 124.028 332.048 101.397 330.264C100.087 330.143 98.3513 329.538 98.646 328.359Z" fill="url(#paint0_linear)"/>
<path opacity="0.22" d="M98.646 328.359C98.7443 327.966 99.0718 327.663 99.3665 327.391C102.511 324.76 106.932 323.883 111.157 323.308C127.828 321.04 144.793 321.766 161.66 321.675L183.767 321.222C189.138 321.403 194.477 322.764 199.16 325.214C199.684 325.486 200.208 325.819 200.438 326.333C200.896 327.482 199.39 328.419 198.145 328.843C189.04 331.776 179.149 331.746 169.487 331.716C146.791 331.685 124.028 332.048 101.397 330.264C100.087 330.143 98.3513 329.538 98.646 328.359Z" fill="url(#paint1_linear)"/>
<path d="M114.039 111.372C112.958 111.311 111.812 111.13 111.026 110.434C110.142 109.618 110.043 108.348 110.011 107.168C110.011 106.987 110.011 106.775 110.142 106.624C110.273 106.442 110.535 106.382 110.764 106.321C113.613 105.747 116.463 105.202 119.279 104.628C119.705 104.537 120.131 104.477 120.524 104.567C121.146 104.749 121.539 105.323 121.769 105.868C122.391 107.168 123.472 110.313 121.408 111.009C119.345 111.735 116.299 111.523 114.039 111.372Z" fill="#C89A81"/>
<path d="M156.452 61.5025C155.306 60.7767 153.996 60.1718 152.621 60.1416C150.426 60.1416 148.625 61.6235 147.151 63.1053C142.664 67.5812 139.029 72.8735 137.326 78.7405C136.703 80.9179 136.343 83.1559 135.688 85.3333C134.935 87.7829 133.788 90.1115 132.675 92.4402C131.463 94.8898 130.251 97.3999 128.352 99.4564C126.452 101.513 123.766 103.085 120.852 103.146C120.884 106.14 121.736 109.104 123.308 111.704C123.439 111.916 123.57 112.128 123.799 112.219C124.061 112.309 124.356 112.249 124.618 112.158C127.271 111.311 129.662 109.829 131.856 108.227C144.858 98.8515 155.601 84.547 161.856 70.4844C163.527 66.5832 159.793 63.5892 156.452 61.5025Z" fill="#F2F2F2"/>
<path d="M183.931 42.3589C182.392 45.8368 180.394 49.1937 177.544 51.8852C174.695 54.5768 170.896 56.5123 166.835 56.724C160.514 57.0869 154.553 53.0949 151.671 47.8933C150.393 45.5949 149.64 43.115 149.018 40.6049C147.511 34.4657 146.856 28.1754 146.758 21.885C146.692 17.4696 146.987 12.7216 149.837 9.1833C152.457 5.91714 156.813 4.2236 161.103 3.52803C166.245 2.68125 171.682 3.10463 176.365 5.22158C192.151 12.2378 189.499 29.8992 183.931 42.3589Z" fill="#C89A81"/>
<path d="M193.789 315.113C193.494 314.387 193.167 313.661 192.872 312.935C193.069 312.875 193.265 312.844 193.462 312.784C193.462 305.859 193.462 298.933 193.462 292.008C193.462 282.935 193.003 274.195 192.119 265.213C189.564 238.63 192.905 211.775 190.547 184.678C189.99 178.388 189.368 172.037 187.73 165.898C185.568 157.884 185.47 156.825 177.741 155.404C165.721 153.226 149.083 153.045 137.26 156.13C137.162 207.813 140.306 265.092 145.153 316.413C145.513 316.413 145.874 316.413 146.201 316.413C143.319 318.681 140.044 320.556 136.54 321.887C135.688 322.22 134.771 322.522 134.083 323.127C132.675 324.397 132.904 326.816 134.509 327.845C136.016 328.812 138.046 328.48 139.815 328.117C144.891 327.089 149.968 326.06 155.044 325.032C155.961 324.851 156.976 324.609 157.599 323.974C158.385 323.187 158.45 322.038 158.45 320.98C158.483 319.437 158.483 317.895 158.516 316.383C158.68 316.383 158.843 316.383 158.974 316.383C162.773 288.5 160.383 226.17 161.3 198.227C163.003 211.231 167.522 254.598 170.896 270.808C172.468 278.308 174.302 285.627 175.612 293.187C176.3 297.058 177.02 300.899 177.839 304.709C178.527 308.006 179.804 311.423 179.706 314.84C179.968 314.871 180.197 314.871 180.459 314.901C178.691 318.076 176.398 320.98 173.647 323.46C172.992 324.064 172.271 324.669 171.878 325.455C171.092 327.119 172.304 329.296 174.204 329.689C175.972 330.052 177.741 329.054 179.247 328.117C183.538 325.395 187.828 322.703 192.119 319.982C192.905 319.498 193.724 318.953 194.084 318.107C194.608 317.199 194.182 316.111 193.789 315.113Z" fill="#272826"/>
<path d="M159.498 61.5024C158.024 60.6859 156.518 59.6576 154.815 59.7483C153.439 59.8088 152.195 60.5649 151.31 61.5326C149.738 63.2262 149.018 65.4641 148.428 67.6113C144.171 82.5812 134.64 96.4321 133.559 111.886C133.297 115.515 133.133 119.174 133.952 122.743C135.328 128.58 139.291 133.781 139.847 139.739C140.142 142.854 139.749 146.574 142.435 148.509C143.712 149.416 145.382 149.658 146.987 149.84C152.653 150.535 158.352 151.261 164.018 151.957C168.112 152.471 172.501 152.924 176.169 151.231C180.754 149.114 182.916 144.245 184.455 139.739C190.252 122.713 192.217 104.779 194.149 87.0268C195.034 78.9824 196.737 60.6556 183.898 59.5971C179.247 59.2342 174.531 61.5326 170.077 62.3794C164.149 63.5286 164.706 64.4359 159.498 61.5024Z" fill="#EDEDED"/>
<path d="M152.522 127.582C146.037 127.37 138.603 127.068 134.018 130.425C132.151 131.786 131.037 133.6 130.153 135.385C125.633 144.427 125.273 154.256 124.913 163.873C124.356 179.568 123.832 195.294 124.585 210.96C124.618 211.595 124.683 212.29 125.207 212.804C125.928 213.53 127.271 213.712 128.515 213.833C146.136 215.556 163.985 216.01 181.737 215.133C188.418 214.8 196.213 213.742 199.16 209.417C200.47 207.512 200.536 205.274 200.438 203.157C200.045 193.812 197.293 184.619 196.049 175.334C194.51 164.084 195.165 152.713 193.462 141.463C192.348 134.205 191.071 126.191 178.592 126.766C169.848 127.128 161.332 127.884 152.522 127.582Z" fill="#E6E6E6"/>
<path d="M178.953 127.249C179.051 126.765 179.477 126.493 180.001 126.372C180.328 126.372 180.688 126.402 181.016 126.463C181.343 126.614 181.573 126.856 181.573 127.219C181.933 156.04 188.647 184.558 192.774 213.167C192.807 213.288 192.774 213.409 192.774 213.5C191.824 213.832 190.94 214.195 189.924 214.377C189.269 214.498 188.614 214.558 187.959 214.679C187.37 214.347 186.977 213.832 186.944 213.137C185.961 184.437 173.811 156.13 178.953 127.249Z" fill="#4F5459"/>
<path d="M167.064 127.219C167.097 127.158 167.129 127.128 167.129 127.098C168.046 127.128 168.964 127.158 169.881 127.158C169.913 127.158 169.946 127.158 169.979 127.158C170.044 127.279 170.077 127.4 170.077 127.551C170.274 134.507 169.226 141.463 169.946 148.449C170.765 156.281 173.45 163.963 175.186 171.705C178.33 185.798 180.099 199.951 180.427 214.195C180.427 214.679 180.263 215.072 180.001 215.405C178.232 215.465 176.464 215.586 174.695 215.647C174.269 215.284 173.974 214.8 173.909 214.195C172.992 198.59 170.929 182.985 167.359 167.562C164.215 154.013 162.773 140.707 167.064 127.219Z" fill="#4F5459"/>
<path d="M154.913 127.491C155.928 127.673 157.009 127.642 158.057 127.612C159.269 141.917 159.957 156.161 161.627 170.495C163.297 185.133 164.738 199.83 164.345 214.528C164.345 214.951 164.182 215.314 163.952 215.617C162.249 215.224 160.022 215.496 158.385 215.526C158.188 215.254 158.09 214.921 158.09 214.528C157.992 199.437 156.649 184.407 155.044 169.377C153.537 155.586 151.278 141.161 154.913 127.491Z" fill="#4F5459"/>
<path d="M143.974 127.219H147.544C145.874 141.947 146.987 156.705 147.839 171.433C148.264 178.782 148.821 186.161 149.411 193.51C149.968 200.586 151.834 208.117 150 215.102C149.968 215.254 149.902 215.405 149.837 215.526C147.937 215.193 145.972 215.163 144.04 215.012C143.909 214.679 143.843 214.316 143.941 213.893C145.775 206.695 143.352 198.53 142.729 191.272C142.074 183.56 141.583 175.818 141.157 168.076C140.47 154.437 139.782 140.646 143.974 127.219Z" fill="#4F5459"/>
<path d="M129.825 166.504C129.989 153.712 129.138 140.647 135.983 128.671C136.769 128.399 137.588 128.248 138.472 128.187C138.603 128.187 138.701 128.157 138.799 128.127C132.97 141.161 136.212 156.373 136.245 169.861C136.277 184.619 135.917 199.438 134.705 214.166C134.705 214.317 134.64 214.468 134.607 214.62C133.199 213.924 131.07 213.954 129.236 213.954C129.17 198.107 129.596 182.291 129.825 166.504Z" fill="#4F5459"/>
<path d="M102.838 98.7905C107.456 104.688 113.089 109.799 118.69 114.879C120.229 116.27 121.769 117.662 123.275 119.053C123.734 119.476 124.192 119.96 123.93 120.746C123.799 121.139 123.504 121.533 123.177 121.926C119.804 126.129 115.218 129.819 110.699 133.327C109.159 134.506 107.554 135.716 105.851 136.321C104.181 136.926 102.674 136.835 101.528 136.381C100.382 135.928 99.5631 135.172 98.7443 134.416C92.9473 128.942 87.4123 123.226 82.0083 117.42C80.3707 115.666 78.7659 113.881 76.7353 112.46C75.72 111.734 74.5737 111.069 73.9841 109.98C73.3946 108.922 73.4274 107.319 74.6392 105.776C75.2942 104.93 76.244 104.174 77.161 103.478C80.6654 100.726 84.1699 98.0042 87.6743 95.2522C89.3118 93.982 91.0149 92.6514 92.8163 91.7441C95.0434 90.6251 95.8949 90.5646 96.9102 91.5929C99.17 93.7703 100.939 96.3409 102.838 98.7905Z" fill="#EDEDED"/>
<path d="M75.72 109.285C75.6545 108.439 76.8335 107.229 77.8815 106.261C82.2375 102.299 86.8554 98.5192 91.6699 95.0111C92.8162 94.1946 94.1263 93.3176 95.3053 93.1361C96.4516 92.9547 96.6809 93.5897 97.1066 94.1341C98.2857 95.6159 99.3337 97.1886 100.48 98.7007C103.133 102.148 106.31 105.203 109.454 108.227C111.321 110.011 113.188 111.796 115.054 113.58C115.906 114.396 116.725 115.183 117.773 115.818C118.919 116.544 120.327 117.36 119.41 119.114C118.919 120.082 117.806 121.05 116.758 121.927C113.974 124.286 111.19 126.644 108.406 128.973C107.456 129.759 106.506 130.576 105.458 131.211C103.69 132.269 101.79 132.723 100.578 132.39C99.8578 132.179 99.3992 131.725 98.9407 131.271C91.6044 123.983 84.0061 116.906 76.1785 110.011C75.982 109.83 75.7527 109.618 75.72 109.285Z" fill="white"/>
<path d="M157.206 80.9177C156.059 74.6273 155.568 68.2159 155.765 61.8348C155.765 61.6232 155.797 61.4114 155.961 61.2905C156.125 61.1997 156.321 61.1998 156.518 61.23C159.335 61.6836 162.872 61.7441 165.525 62.6816C166.933 63.1957 166.54 63.3772 165.688 64.5264C164.902 65.5546 164.149 66.5829 163.428 67.6413C162.053 69.6978 160.841 71.845 159.793 74.0527C158.876 75.9579 157.206 78.831 157.206 80.9177Z" fill="#C89A81"/>
<path d="M173.843 65.6457C174.04 65.7667 174.269 65.9784 174.204 66.1901C174.171 66.3413 173.974 66.432 173.811 66.4925C172.763 66.9461 171.715 67.43 170.699 67.8836C170.339 68.0349 169.946 68.2465 169.815 68.5792C169.586 69.184 170.241 69.7284 170.765 70.1518C171.649 70.8776 172.304 71.8756 172.599 72.9341C172.632 73.0853 172.664 73.2667 172.599 73.4482C172.533 73.5994 172.337 73.7204 172.173 73.8111C166.933 76.6841 161.693 79.5571 156.452 82.4301C156.289 80.2224 157.238 78.1055 158.188 76.1095C159.367 73.6297 160.612 71.2103 161.922 68.7909C162.97 66.8252 164.28 64.5268 166.409 63.4078C168.603 62.2586 172.009 64.4663 173.843 65.6457Z" fill="#D6D6D6"/>
<path d="M150.393 61.8648C149.706 61.9253 148.854 62.2278 148.887 62.8326C148.919 63.1048 149.116 63.3165 149.312 63.5282C150.164 64.4354 151.016 65.3125 151.867 66.2197C150.95 66.5826 150.066 66.9455 149.149 67.3084C148.854 67.4294 148.526 67.5806 148.461 67.883C148.395 68.1552 148.592 68.3972 148.788 68.6391C151.507 71.9053 153.767 75.5343 155.437 79.3448C155.994 80.5847 156.518 81.9154 157.566 82.8529C156.911 77.9537 156.551 73.0242 156.452 68.0645C156.42 66.6129 157.238 63.0443 156.092 61.8951C154.913 60.7762 151.769 61.7136 150.393 61.8648Z" fill="#D6D6D6"/>
<path d="M108.963 104.143C108.701 104.204 108.603 104.476 108.537 104.688C108.406 105.293 108.275 105.928 108.537 106.502C108.701 106.865 108.996 107.168 109.29 107.47C110.011 108.166 110.764 108.831 111.714 109.315C112.631 109.799 113.745 110.071 114.825 109.95C114.924 109.95 115.022 109.92 115.087 109.859C115.153 109.799 115.153 109.738 115.186 109.678C115.579 108.347 115.153 106.865 113.712 106.109C113.155 105.837 112.467 105.716 111.91 105.474C111.255 105.202 109.683 104.022 108.963 104.143Z" fill="#C89A81"/>
<path d="M123.406 103.751C123.013 102.814 122.456 101.755 121.376 101.483C120.131 101.15 118.821 102.209 118.526 103.388C118.231 104.568 118.592 105.777 118.952 106.957C119.41 108.348 119.836 109.709 120.295 111.1C120.688 112.34 121.245 113.731 122.522 114.215C123.111 114.457 123.799 114.457 124.454 114.396C124.88 114.366 125.273 114.306 125.633 114.154C127.074 113.459 125.633 110.344 125.338 109.225C124.814 107.35 124.159 105.535 123.406 103.751Z" fill="#D6D6D6"/>
<path d="M141.682 19.7074C141.551 20.403 141.485 21.1288 141.845 21.7336C142.369 22.6712 143.647 22.9735 144.793 22.9735C147.38 22.9735 149.968 21.9453 152.489 22.4292C153.636 22.6409 154.684 23.155 155.797 23.4574C160.022 24.6369 164.739 23.0038 168.996 24.153C173.974 25.5139 177.086 31.0785 175.35 35.6148C176.103 34.4051 177.119 33.1954 178.56 32.772C180.001 32.3486 181.933 33.1954 181.966 34.5866C181.999 36.0987 180.099 36.9757 179.182 38.2458C178.036 39.8487 178.592 41.9354 178.756 43.8407C179.051 47.2278 177.937 50.7057 175.678 53.3972C178.232 51.1593 181.54 49.7984 184.258 47.7722C188.549 44.5363 191.169 39.758 192.97 34.9192C195.656 27.6309 196.671 19.4352 193.462 12.3283C192.348 9.87871 190.776 7.61052 189.04 5.49356C187.959 4.19315 186.78 2.89276 185.274 2.01573C182.719 0.503623 179.509 0.322152 176.464 0.201183C171.682 -0.0105125 166.867 -0.222189 162.118 0.503623C151.114 2.16694 143.417 9.48552 141.682 19.7074Z" fill="#441A19"/>
<path d="M200.012 4.25343C204.008 4.22319 207.905 5.55381 211.311 7.51955C220.94 13.0841 226.573 24.0318 225.165 34.4351C224.379 40.3626 221.53 45.8969 219.433 51.5522C217.337 57.2075 215.995 63.4978 218.222 69.1229C219.008 71.1491 220.252 72.9636 221.497 74.7782C224.87 79.6169 228.702 84.5161 234.303 87.0565C237.218 88.3871 240.886 88.9617 243.637 87.3589C244.652 90.0505 242.13 92.8025 239.477 94.2541C231.519 98.6695 220.383 97.4295 213.767 91.4113C210.689 88.6291 208.625 85.0605 206.759 81.4617C203.746 75.6552 201.158 69.516 201.027 63.0744C200.962 59.1732 201.813 55.3324 202.435 51.4614C203.058 47.6811 203.451 43.8706 203.647 40.0299C203.746 37.7315 203.778 35.3424 202.73 33.2859C200.077 28.0238 191.988 26.8443 188.942 21.7636C188.025 20.2213 187.665 18.4672 187.304 16.7434C185.863 9.57603 192.381 4.28368 200.012 4.25343Z" fill="#441A19"/>
<path d="M114.268 126.643C114.53 126.825 114.661 127.188 114.629 127.49C114.596 127.913 114.301 128.306 113.875 128.488C113.45 128.669 112.958 128.639 112.565 128.397C111.223 127.55 113.089 125.796 114.268 126.643Z" fill="white"/>
<path d="M115.48 125.797C117.249 124.043 120.622 125.978 122.882 124.89C123.373 124.648 123.766 124.315 124.225 124.013C125.568 123.196 127.467 123.196 128.81 124.013C129.662 124.527 130.349 125.313 131.299 125.646C131.954 125.858 132.707 125.827 133.395 125.767C147.216 124.89 161.038 123.982 174.859 123.105C177.118 122.954 179.411 122.833 181.573 123.438C183.734 124.043 185.732 125.555 186.125 127.612L187.108 129.033C174.859 131.543 162.479 133.902 149.968 134.416C142.336 134.718 134.574 134.386 127.14 135.989C124.061 136.654 120.622 137.622 117.937 136.11C115.251 134.628 114.563 131.331 114.629 128.458C114.661 127.491 114.792 126.493 115.48 125.797Z" fill="#C89A81"/>
<path d="M193.658 63.0442C200.863 69.0926 202.01 78.9516 203.877 87.7823C205.973 97.5808 209.477 107.107 211.671 116.875C212.326 119.779 212.818 122.984 211.344 125.615C209.182 129.426 203.942 130.454 199.357 131.089C192.512 132.027 190.088 132.389 183.243 133.327C171.354 134.99 170.601 134.113 157.14 135.535C156.125 135.656 155.077 135.353 154.193 134.869C153.013 134.264 152.293 133.146 151.703 132.027C150.361 129.517 149.444 126.795 148.985 124.012C148.69 122.289 148.658 120.353 149.869 119.022C150.852 117.964 152.391 117.601 153.865 117.268C168.112 114.002 172.206 117.238 186.453 113.972C187.665 113.7 188.909 113.428 189.99 112.853C193.756 110.978 187.992 102.329 187.108 98.4578C186.223 94.5868 186.682 89.5666 184.488 86.1795C182.555 83.1855 180.852 80.1008 179.378 76.9254C177.97 73.9012 176.726 70.5745 177.348 67.3386C178.756 59.9595 188.221 58.4776 193.658 63.0442Z" fill="#F2F2F2"/>
<path d="M159.073 128.065C158.155 125.887 157.042 123.801 156.125 121.623C155.666 120.565 155.273 119.476 154.913 118.387C154.618 117.48 154.258 116.452 153.308 116.089C152.653 115.847 151.867 115.998 151.212 116.21C149.968 116.603 148.789 117.117 147.675 117.752C147.282 117.964 146.922 118.236 146.693 118.599C146.529 118.871 146.496 119.204 146.496 119.506C146.398 121.442 147.02 123.317 147.708 125.161C149.051 128.73 150.655 132.178 152.522 135.534C152.817 136.079 153.145 136.623 153.636 136.986C155.208 138.226 158.483 137.833 160.252 137.107C162.413 136.23 161.038 133.75 160.546 132.208C160.121 130.817 159.629 129.426 159.073 128.065Z" fill="#D6D6D6"/>
<path d="M93.7006 119.235C93.5368 118.842 93.6678 118.388 93.8971 118.025C94.1263 117.662 94.4866 117.39 94.8468 117.118C96.2879 115.999 97.7945 114.94 99.2355 113.852C99.9561 113.307 100.677 112.733 101.364 112.158C101.823 111.765 102.216 111.13 102.74 110.858C103.395 110.495 104.41 110.767 104.967 111.16C105.164 111.311 105.327 111.463 105.426 111.705C105.491 111.916 105.491 112.128 105.426 112.309C105.295 112.763 104.934 113.156 104.574 113.519C102.347 115.787 99.8578 117.934 96.9757 119.477C96.4189 119.779 95.8622 120.051 95.2399 120.082C94.5848 120.051 93.8971 119.779 93.7006 119.235Z" fill="#CBB190"/>
<path d="M103.788 109.527C104.116 109.769 104.181 110.223 104.05 110.586C103.919 110.949 103.624 111.221 103.297 111.463C103.198 111.523 103.133 111.584 103.1 111.674C103.035 111.856 103.198 112.067 103.264 112.249C103.362 112.672 102.871 113.035 102.38 113.126C101.921 113.217 101.364 113.217 101.004 113.489C100.709 113.731 100.611 114.124 100.513 114.457C100.382 114.819 100.218 115.182 99.8251 115.303C99.3993 115.455 98.8753 115.182 98.4495 115.334C98.122 115.424 97.9255 115.727 97.7945 116.029C97.6635 116.332 97.5652 116.634 97.3687 116.876C97.0412 117.269 96.4189 117.42 95.8949 117.299C95.7966 117.269 95.6984 117.239 95.6001 117.299C95.5674 117.33 95.5346 117.36 95.5019 117.39C95.3054 117.693 95.3709 118.146 95.0106 118.297C94.7814 118.418 94.5193 118.328 94.2573 118.388C93.8643 118.509 93.635 119.023 93.2093 118.993C93.0128 118.963 92.849 118.811 92.7508 118.66C92.5215 118.176 92.7835 117.602 93.1765 117.269C93.6023 116.906 94.1263 116.725 94.6503 116.513C95.6984 116.09 96.6809 115.515 97.3032 114.668C97.598 114.245 97.8272 113.761 98.1548 113.398C99.0063 112.461 100.546 112.249 101.364 111.311C101.823 110.797 102.773 108.711 103.788 109.527Z" fill="#82B68D"/>
<path d="M91.4734 115.999C91.3752 115.636 91.4734 115.273 91.7027 114.971C91.9319 114.668 92.2267 114.426 92.5215 114.185C94.0935 112.945 95.6656 111.705 97.2377 110.495C97.9909 109.92 98.8097 109.376 99.5302 108.741C99.8905 108.408 100.185 107.864 100.677 107.682C101.594 107.35 102.347 108.015 102.576 108.801C102.707 109.195 102.773 109.618 102.838 110.041C102.871 110.374 102.904 110.707 102.74 111.009C102.609 111.251 102.38 111.463 102.15 111.644C101.266 112.4 100.382 113.126 99.4975 113.882C98.4822 114.729 97.4342 115.606 96.2879 116.332C95.6656 116.725 94.9778 117.088 94.2573 117.299C93.8643 117.42 93.4058 117.511 93.0127 117.42C92.5542 117.299 92.1612 116.997 91.8664 116.634C91.7027 116.422 91.5389 116.241 91.4734 115.999Z" fill="#D9924E"/>
<path d="M90.0651 115.969C89.8031 115.485 89.6393 114.941 89.8031 114.426C89.9013 114.124 90.0978 113.852 90.3271 113.61C90.7856 113.126 91.3751 112.733 91.9319 112.37C93.4712 111.342 94.9778 110.253 96.4844 109.164C97.2049 108.62 97.9582 108.076 98.646 107.501C99.0717 107.168 99.3665 106.654 99.8578 106.412C100.48 106.14 101.626 106.11 101.823 106.896C101.888 107.229 101.725 107.561 101.463 107.803C101.201 108.045 100.906 108.197 100.611 108.408C100.546 108.469 100.48 108.499 100.447 108.59C100.349 108.771 100.48 109.013 100.644 109.134C100.808 109.285 101.004 109.406 101.102 109.588C101.299 109.951 101.004 110.374 100.644 110.616C100.284 110.858 99.7923 110.979 99.3337 110.949C99.0062 110.918 98.6132 110.858 98.3512 111.07C98.0892 111.312 98.1547 111.705 98.1547 112.037C98.1219 112.642 97.7289 113.217 97.1721 113.549C96.6154 113.882 95.9276 114.003 95.2725 114.033C95.1743 114.033 95.0433 114.033 94.9778 114.094C94.7813 114.185 94.7813 114.426 94.7158 114.608C94.6175 115.062 94.2573 115.485 93.7987 115.697C93.3402 115.908 92.7507 115.908 92.2922 115.697C92.3904 115.848 92.3249 116.029 92.2267 116.15C92.1284 116.271 91.9647 116.332 91.8009 116.422C91.3751 116.604 90.8838 116.785 90.4908 116.574C90.2943 116.362 90.1633 116.15 90.0651 115.969Z" fill="#82B68D"/>
<path d="M89.4758 112.702C89.6723 111.976 90.1963 111.341 90.7203 110.797C91.2116 110.283 91.6046 109.708 92.0959 109.194C93.1767 108.075 94.5195 107.138 95.9933 106.503C96.812 106.14 97.6636 105.867 98.5806 105.686C99.0719 105.595 99.5959 105.535 99.9889 105.807C100.349 106.049 100.48 106.472 100.415 106.865C100.382 107.259 100.185 107.621 99.9889 107.954C99.3011 109.164 98.5479 110.313 97.5981 111.341C96.0915 113.035 94.0937 114.486 91.7356 114.88C91.2771 114.97 90.7858 115.001 90.36 114.819C89.574 114.517 89.2793 113.519 89.4758 112.702Z" fill="#CBB190"/>
<path d="M83.4821 99.8798C83.8424 99.5774 84.2681 99.3656 84.5957 99.0027C84.6612 98.9423 84.6939 98.8818 84.7922 98.8516C84.8249 98.8213 84.8904 98.8213 84.9232 98.8213C84.9887 98.8213 85.0542 98.8213 85.0869 98.8213C85.2179 98.8515 85.2179 98.9725 85.1197 99.0632C84.7922 99.4564 84.2681 99.6984 83.9734 100.122C83.8751 100.243 83.8096 100.364 83.6786 100.394C83.5803 100.394 83.4821 100.364 83.4166 100.303C83.3511 100.273 83.3184 100.212 83.3184 100.152C83.3184 100.031 83.3838 99.9403 83.4821 99.8798Z" fill="#9E9E9E"/>
<path d="M85.6765 98.216C85.7093 98.1253 85.873 98.095 85.9713 98.1555C86.0695 98.216 86.1023 98.337 86.0695 98.4277C86.0695 98.458 86.0695 98.4882 86.0367 98.5185C86.004 98.5487 85.9712 98.5789 85.9057 98.5789C85.8075 98.6092 85.6765 98.5487 85.6438 98.458C85.611 98.3975 85.611 98.2765 85.6765 98.216Z" fill="#9E9E9E"/>
<path d="M102.249 120.475C102.216 120.505 102.183 120.535 102.183 120.596C102.183 120.656 102.216 120.686 102.281 120.717C102.707 121.019 103.133 121.352 103.592 121.654C103.723 121.745 103.821 121.836 103.985 121.836C104.148 121.836 104.312 121.715 104.443 121.624C105.262 120.989 106.081 120.323 106.867 119.688C107.423 119.235 108.209 118.811 108.209 118.025C108.209 117.481 107.849 116.966 107.26 116.876C106.408 116.755 105.426 117.813 104.836 118.267C103.952 118.963 103.1 119.719 102.249 120.475Z" fill="#9AA4AD"/>
<path d="M106.31 117.692C106.343 117.692 106.375 117.692 106.408 117.723C106.736 117.692 107.063 117.813 107.26 118.086C107.456 118.358 107.325 118.66 106.998 118.781C106.67 118.902 106.31 118.751 106.113 118.509C105.851 118.207 105.917 117.813 106.31 117.692ZM106.932 118.6C107.227 118.509 107.194 118.206 106.998 118.025C106.834 117.874 106.637 117.813 106.441 117.813C106.441 117.844 106.408 117.874 106.375 117.874C105.851 118.176 106.474 118.751 106.932 118.6Z" fill="#4F5459"/>
<path d="M105.819 119.446C105.786 119.355 105.786 119.234 105.786 119.144C105.786 119.113 105.819 118.962 105.851 118.871C105.72 118.902 105.622 118.962 105.491 118.932C105.393 118.932 105.295 118.871 105.262 118.781C105.164 118.569 105.393 118.357 105.589 118.267C105.622 118.267 105.655 118.267 105.655 118.267C105.688 118.267 105.72 118.267 105.72 118.297C105.982 118.569 106.277 118.811 106.474 119.113C106.539 119.204 106.375 119.325 106.277 119.234C106.212 119.144 106.113 119.053 106.048 118.962C106.015 119.144 106.048 119.295 106.081 119.476C106.113 119.597 105.95 119.688 105.851 119.597C105.851 119.597 105.851 119.597 105.851 119.567C105.819 119.537 105.819 119.476 105.819 119.446ZM105.819 118.66C105.753 118.569 105.688 118.509 105.622 118.418C105.557 118.448 105.491 118.509 105.458 118.569C105.524 118.69 105.589 118.75 105.688 118.69C105.72 118.69 105.753 118.66 105.819 118.66Z" fill="#4F5459"/>
<path d="M104.77 118.811C104.836 118.75 104.967 118.841 104.901 118.902C104.77 119.083 104.738 119.265 104.869 119.446C105 119.658 105.295 119.749 105.524 119.597C105.36 119.386 105.196 119.204 105.033 118.992C104.967 118.932 105.065 118.841 105.131 118.902C105.327 119.113 105.557 119.325 105.753 119.567C105.819 119.628 105.786 119.688 105.72 119.718C105.72 119.718 105.72 119.748 105.688 119.748C105.458 120.081 104.934 119.96 104.705 119.688C104.476 119.416 104.508 119.053 104.77 118.811Z" fill="#4F5459"/>
<path d="M104.64 120.354C104.705 120.354 104.738 120.323 104.771 120.293C104.836 120.263 104.836 120.263 104.803 120.233C104.771 120.172 104.672 120.081 104.64 120.051C104.607 120.021 104.607 120.021 104.574 119.991C104.574 120.021 104.541 120.021 104.541 120.051C104.443 120.112 104.345 120.172 104.214 120.142C104.083 120.142 104.083 119.991 104.181 119.96C104.279 119.93 104.345 119.93 104.41 119.87C104.41 119.87 104.41 119.87 104.443 119.87C104.378 119.779 104.279 119.718 104.214 119.628C104.214 119.658 104.181 119.688 104.148 119.688C104.083 119.718 104.017 119.749 103.952 119.809C103.821 119.9 103.69 119.688 103.854 119.597C103.919 119.567 103.985 119.537 104.05 119.507C104.116 119.476 104.148 119.507 104.181 119.537C104.214 119.507 104.279 119.476 104.312 119.537C104.476 119.688 104.64 119.809 104.803 119.96C104.902 120.051 105.065 120.142 105.098 120.293C105.131 120.414 104.967 120.505 104.869 120.595C104.771 120.686 104.672 120.716 104.541 120.656C104.443 120.535 104.541 120.354 104.64 120.354Z" fill="#4F5459"/>
<path d="M103.591 121.29C103.624 121.2 103.788 120.655 103.853 120.686C103.821 120.655 103.559 120.746 103.493 120.776C103.395 120.776 103.297 120.776 103.198 120.716C102.871 120.534 103.1 120.081 103.395 119.96C103.428 119.93 103.493 119.96 103.493 119.99C103.526 119.99 103.526 119.99 103.559 120.02C103.853 120.262 104.115 120.504 104.378 120.776C104.476 120.897 104.312 121.048 104.181 120.928C104.148 120.867 104.083 120.837 104.05 120.776C104.05 120.807 104.05 120.807 104.017 120.837C103.952 121.018 103.853 121.2 103.821 121.381C103.853 121.532 103.559 121.442 103.591 121.29ZM103.722 120.444C103.755 120.444 103.755 120.444 103.788 120.444C103.69 120.353 103.591 120.232 103.493 120.141C103.395 120.202 103.264 120.323 103.329 120.444C103.395 120.595 103.624 120.474 103.722 120.444Z" fill="#4F5459"/>
<path d="M80.3053 108.922C79.8795 109.285 79.4537 109.648 78.8969 109.829C78.3729 110.01 77.6852 109.95 77.3249 109.557C76.9646 109.194 76.9974 108.619 77.1939 108.166C77.4231 107.712 77.7834 107.349 78.1764 107.017C78.8315 106.442 79.4865 105.867 80.1415 105.293C83.0564 102.783 86.0368 100.363 89.0172 97.9439C89.5084 97.5507 89.9997 97.1576 90.491 96.7644C91.8665 95.6757 93.2093 94.5568 94.6832 93.5588C94.9779 93.3773 95.3382 93.1656 95.6657 93.2866C95.8295 93.347 95.9605 93.4983 96.0587 93.6192C96.812 94.5567 96.7138 94.708 95.8295 95.4943C95.1089 96.1596 94.3557 96.7947 93.6024 97.4298C92.1286 98.7302 90.622 100.031 89.1482 101.301C87.6744 102.601 86.1678 103.871 84.694 105.172C83.9407 105.807 83.1874 106.472 82.4669 107.107C81.7791 107.652 81.0258 108.559 80.3053 108.922Z" fill="#B3BFC9"/>
<defs>
<linearGradient id="paint0_linear" x1="200.516" y1="326.473" x2="98.6097" y2="326.473" gradientUnits="userSpaceOnUse">
<stop stop-color="white"/>
<stop offset="1"/>
</linearGradient>
<linearGradient id="paint1_linear" x1="200.516" y1="326.473" x2="98.6097" y2="326.473" gradientUnits="userSpaceOnUse">
<stop/>
<stop offset="1"/>
</linearGradient>
</defs>
</svg>
